/* XPM */
static char *result[] = {
/* columns rows colors chars-per-pixel */
"65 65 150 2 ",
"   c #160C07",
".  c #180D07",
"X  c #170D08",
"o  c #1A0F09",
"O  c #25130D",
"+  c #28150E",
"@  c #24180F",
"#  c #2B180F",
"$  c #2E1C12",
"%  c #331C12",
"&  c #3A1E14",
"*  c #3C2216",
"=  c #3E2518",
"-  c #3E2A19",
";  c #402716",
":  c #4D2E17",
">  c #412318",
",  c #422B1D",
"<  c #4F2F18",
"1  c #4C321D",
"2  c #513119",
"3  c #543223",
"4  c #583E27",
"5  c #623A20",
"6  c #6D3A21",
"7  c #743E24",
"8  c #58412D",
"9  c #604227",
"0  c #61442B",
"q  c #65492F",
"w  c #774025",
"e  c #7A4225",
"r  c #76422D",
"t  c #7A442E",
"y  c #624933",
"u  c #654E38",
"i  c #775032",
"p  c #7E5732",
"a  c #8B4E2A",
"s  c #904F2B",
"d  c #93532D",
"f  c #9A572D",
"g  c #955D2E",
"h  c #8B4F35",
"j  c #82533C",
"k  c #8C583C",
"l  c #965731",
"z  c #965F30",
"x  c #9B5830",
"c  c #9A5B3E",
"v  c #976131",
"b  c #9B6435",
"n  c #AE622E",
"m  c #AE6D38",
"M  c #B16631",
"N  c #B36A33",
"B  c #B36E38",
"V  c #B6713B",
"C  c #BA763E",
"Z  c #C56C36",
"A  c #CA6E35",
"S  c #CD7035",
"D  c #CE7138",
"F  c #D47437",
"G  c #D87637",
"H  c #D77738",
"J  c #D97738",
"K  c #D7793A",
"L  c #DA7B3A",
"P  c #9E5E41",
"I  c #8B6642",
"U  c #8D6A45",
"Y  c #8C6D4C",
"T  c #9B6F42",
"R  c #906F4E",
"E  c #8E704F",
"W  c #9D7245",
"Q  c #9D764A",
"!  c #9E794E",
"~  c #957452",
"^  c #9F7850",
"/  c #A36241",
"(  c #AD6641",
")  c #AF6942",
"_  c #AE6F4E",
"`  c #B16744",
"'  c #B36B45",
"]  c #B96E47",
"[  c #BA6F48",
"{  c #B47545",
"}  c #BA7641",
"|  c #BC7A42",
" . c #B2724E",
".. c #BC714A",
"X. c #BC7D56",
"o. c #C37B40",
"O. c #C2764E",
"+. c #C57A51",
"@. c #C87D54",
"#. c #DE813D",
"$. c #E0843F",
"%. c #C48344",
"&. c #C68749",
"*. c #C6884A",
"=. c #CD8E4F",
"-. c #DE8540",
";. c #DF8A43",
":. c #DD894E",
">. c #C88254",
",. c #C5865E",
"<. c #CA825A",
"1. c #D19255",
"2. c #E28640",
"3. c #E58C44",
"4. c #E88D44",
"5. c #E38D4B",
"6. c #E79046",
"7. c #E99147",
"8. c #E7914A",
"9. c #EA954A",
"0. c #ED994D",
"q. c #F29D4F",
"w. c #E18E51",
"e. c #E49253",
"r. c #E99653",
"t. c #EE9D52",
"y. c #EC9E5C",
"u. c #F09F51",
"i. c #EFA157",
"p. c #EDA35D",
"a. c #F2A355",
"s. c #F3A659",
"d. c #F4AA5C",
"f. c #D89968",
"g. c #EEA660",
"h. c #EFA964",
"j. c #EAA86A",
"k. c #F4AD62",
"l. c #F1AE6A",
"z. c #F6B165",
"x. c #F7B46A",
"c. c #F8B56C",
"v. c #F2B372",
"b. c #F9C07F",
"n. c #E3B893",
"m. c #FBC687",
"M. c #FAC689",
"N. c #FCCA8C",
"B. c #F6C791",
"V. c None",
/* pixels */
"V.V.V.V.V.V.V.V.V.V.V.V.V.V.V.V.V.V.V.V.V.V.V.V.V.V.V.V.V.V.V.V.V.V.V.V.V.V.V.V.V.V.V.V.V.V.V.V.V.V.V.V.V.V.V.V.V.V.V.V.V.V.V.V.V.",
"V.V.V.V.V.V.V.V.V.V.V.V.V.V.V.V.V.V.V.V.V.V.V.V.V.V.V.V.V.V.V.V.V.V.V.V.V.V.V.V.V.V.V.V.V.V.V.V.V.V.V.V.V.V.V.V.V.V.V.V.V.V.V.V.V.",
"V.V.V.V.V.V.V.V.V.V.V.V.V.V.V.V.V.V.V.V.V.V.V.V.V.V.V.V.V.V.V.V.V.V.V.V.V.V.V.V.V.V.V.V.V.V.V.V.V.V.V.V.V.V.V.V.V.V.V.V.V.V.V.V.V.",
"V.V.V.V.V.V.V.V.V.V.V.V.V.V.V.V.V.V.V.V.V.V.V.V.V.V.V.V.V.V.V.V.V.V.V.V.V.V.V.V.V.V.V.V.V.V.V.V.V.V.V.V.V.V.V.V.V.V.V.V.V.V.V.V.V.",
"V.V.V.V.V.V.V.V.V.V.V.V.V.V.V.V.V.V.V.V.V.V.V.V.V.V.V.V.V.V.V.V.V.V.V.V.V.V.V.V.V.V.V.V.V.V.V.V.V.V.V.V.V.V.V.V.V.V.V.V.V.V.V.V.V.",
"V.V.V.V.V.V.V.V.V.V.V.V.V.V.V.V.V.V.V.V.V.V.V.V.V.V.V.V.V.V.V.V.V.V.V.V.V.V.V.V.V.V.V.V.V.V.V.V.V.V.V.V.V.V.V.V.V.V.V.V.V.V.V.V.V.",
"V.V.V.V.V.V.V.V.V.V.V.V.V.V.V.V.V.V.V.V.V.V.V.V.V.V.V.V.V.V.V.V.V.V.V.V.V.V.V.V.V.V.V.V.V.V.V.V.V.V.V.V.V.V.V.V.V.V.V.V.V.V.V.V.V.",
"V.V.V.V.V.V.V.V.V.V.V.V.V.V.V.V.V.V.V.V.V.V.V.V.V.V.V.V.V.V.V.V.V.V.V.V.V.V.V.V.V.V.V.V.V.V.V.V.V.V.V.V.V.V.V.V.V.V.V.V.V.V.V.V.V.",
"V.V.V.V.V.V.V.V.V.V.V.V.V.V.V.V.V.V.V.V.V.V.V.V.V.V.V.V.V.V.V.V.V.V.V.V.V.V.V.V.V.V.V.V.V.V.V.V.V.V.V.V.V.V.V.V.V.V.V.V.V.V.V.V.V.",
"V.V.V.V.V.V.V.V.V.V.V.V.V.V.V.V.V.V.V.V.V.V.V.V.V.V.V.V.V.V.V.V.V.V.V.V.V.V.V.V.V.V.V.V.V.V.V.V.V.V.V.V.V.V.V.V.V.V.V.V.V.V.V.V.V.",
"V.V.V.V.V.V.V.V.V.V.V.V.V.V.V.V.V.V.V.V.V.V.V.V.V.V.V.V.V.V.V.V.V.V.V.V.V.V.V.V.V.V.V.V.V.V.V.V.V.V.V.V.V.V.V.V.V.V.V.V.V.V.V.V.V.",
"V.V.V.V.V.V.V.V.V.V.V.V.V.V.V.V.V.V.V.V.V.V.V.V.V.V.V.V.V.V.V.V.V.V.V.V.V.V.V.V.V.V.V.V.V.V.V.V.V.V.V.V.V.V.V.V.V.V.V.V.V.V.V.V.V.",
"V.V.V.V.V.V.V.V.V.V.V.V.V.V.V.V.V.V.V.V.V.V.V.V.V.V.V.V.V.V.V.V.V.V.V.V.V.V.V.V.V.V.V.V.V.V.V.V.V.V.V.V.V.V.V.V.V.V.V.V.V.V.V.V.V.",
"V.V.V.V.V.V.V.V.V.V.V.V.V.V.V.V.V.V.V.V.V.V.V.V.V.V.V.V.V.V.V.V.V.V.V.V.V.V.V.V.V.V.V.V.V.V.V.V.V.V.V.V.V.V.V.V.V.V.V.V.V.V.V.V.V.",
"V.V.V.V.V.V.V.V.V.V.V.V.V.V.b.N.N.N.N.N.N.N.N.N.N.N.N.N.N.m.m.V.V.V.m.N.m.m.N.m.m.m.m.m.m.M.M.M.B.B.n.V.V.V.V.V.V.V.V.V.V.V.V.V.V.",
"V.V.V.V.V.V.V.V.V.V.V.V.V.V.s.x.x.c.x.x.x.x.z.z.z.z.z.k.k.k.k.,.3 1.d.d.d.s.s.s.s.s.a.a.a.i.t.t.t.t.<.V.V.V.V.V.V.V.V.V.V.V.V.V.V.",
"V.V.V.V.V.V.V.V.V.V.V.V.V.V.a.k.k.k.z.z.z.k.k.k.z.k.d.d.d.d.d.X.: *.s.s.a.a.i.a.a.a.u.t.u.0.0.9.9.9.@.V.V.V.V.V.V.V.V.V.V.V.V.V.V.",
"V.V.V.V.V.V.V.V.V.V.V.V.V.V.a.k.z.k.z.z.d.z.d.d.d.d.d.d.d.d.s. .= &.s.a.a.a.u.a.a.u.0.t.0.0.0.0.0.9.@.V.V.V.V.V.V.V.V.V.V.V.V.V.V.",
"V.V.V.V.V.V.V.V.V.V.V.V.V.V.a.k.k.k.d.d.d.d.d.d.d.s.s.s.d.s.s. .= %.s.a.i.u.a.0.0.t.0.0.0.0.0.9.9.8.+.V.V.V.V.V.V.V.V.V.V.V.V.V.V.",
"V.V.V.V.V.V.V.V.V.V.V.V.V.V.t.d.d.d.d.d.d.d.d.d.s.s.s.s.s.s.a. .- %.u.i.u.u.a.0.0.0.0.0.0.9.9.9.9.7.+.V.V.V.V.V.V.V.V.V.V.V.V.V.V.",
"V.V.V.V.V.V.V.V.V.V.V.V.V.V.t.s.d.d.d.d.d.d.s.s.s.s.s.s.a.a.t._ * %.i.u.0.a.0.0.0.0.0.0.9.9.9.9.9.7.+.V.V.V.V.V.V.V.V.V.V.V.V.V.V.",
"V.V.V.V.V.V.V.V.V.V.V.V.V.V.0.s.s.d.a.d.s.a.a.a.a.a.a.a.a.u.y._ * %.u.u.0.q.0.0.0.0.9.9.9.9.9.7.6.8.O.V.V.V.V.V.V.V.V.V.V.V.V.V.V.",
"V.V.V.V.V.V.V.V.V.V.V.V.V.V.0.a.a.a.a.a.a.a.a.a.a.u.u.u.u.u.t._ $ | 0.0.0.9.0.9.0.9.9.9.9.9.9.3.6.5.O.V.V.V.V.V.V.V.V.V.V.V.V.V.V.",
"V.V.V.V.V.V.V.V.V.V.V.V.V.V.q.s.s.s.s.s.a.a.a.a.a.a.a.a.a.u.u._ - #.q.0.0.q.0.q.9.0.9.9.7.7.9.9.6.3.O.V.V.V.V.V.V.V.V.V.V.V.V.V.V.",
"V.V.V.V.V.V.V.V.V.V.V.V.V.V.o.| #.C C %.| | | | | C C | | C } k $ b C V V V V V V V V V V B B B B B / V.V.V.V.V.V.V.V.V.V.V.V.V.V.",
"V.V.V.V.V.V.V.V.V.V.V.V.V.V.V.% # $ % $ % % % & % % % % % % % + o $ * * * $ $ * * > > * & > * * & & V.V.V.V.V.V.V.V.V.V.V.V.V.V.V.",
"V.V.V.V.V.V.V.V.V.V.V.V.V.V.V.u y y y y u 8 @ o , y y y y y q y u q y 8 0 q 9 q - o @ 4 9 9 9 9 9 y V.V.V.V.V.V.V.V.V.V.V.V.V.V.V.",
"V.V.V.V.V.V.V.V.V.V.V.V.V.V.g.v.v.v.v.c.c.j.i ; 1.l.l.l.z.j.h.h.h.h.h.p.p.p.p.p.{ + p y.t.y.t.t.t.p.f.V.V.V.V.V.V.V.V.V.V.V.V.V.V.",
"V.V.V.V.V.V.V.V.V.V.V.V.V.V.3.0.t.9.0.9.9.r.k 2 7.9.9.9.9.9.9.9.7.7.7.7.6.6.6.3.{ % b 9.3.3.2.2.$.-...V.V.V.V.V.V.V.V.V.V.V.V.V.V.",
"V.V.V.V.V.V.V.V.V.V.V.V.V.V.3.9.9.9.0.9.9.e.j 1 6.0.9.9.9.7.9.6.7.7.6.7.6.6.6.3.' % v 7.2.2.2.2.2.#...V.V.V.V.V.V.V.V.V.V.V.V.V.V.",
"V.V.V.V.V.V.V.V.V.V.V.V.V.V.3.9.9.9.9.9.9.e.j 2 ;.7.7.7.6.6.6.6.6.6.6.3.6.3.3.3.' $ v 4.2.2.2.-.2.-.[ V.V.V.V.V.V.V.V.V.V.V.V.V.V.",
"V.V.V.V.V.V.V.V.V.V.V.V.V.V.2.9.9.9.9.9.9.e.j 2 ;.9.7.6.6.6.6.6.6.3.3.3.3.2.3.3.' % v 3.2.2.2.#.#.#.[ V.V.V.V.V.V.V.V.V.V.V.V.V.V.",
"V.V.V.V.V.V.V.V.V.V.V.V.V.V.2.9.7.9.5.9.e.w.I : ;.9.7.3.5.4.7.4.2.3.3.3.5.3.3.$.) $ z 3.2.#.$.L $.L ..V.V.V.V.V.V.V.V.V.V.V.V.V.V.",
"V.V.V.V.V.V.V.V.V.V.V.V.V.V.2.7.5.4.4.5.4.L j : -.3.3.3.3.3.3.3.3.3.2.3.$.2.2.$.( % z 3.2.#.$.2.L #.[ V.V.V.V.V.V.V.V.V.V.V.V.V.V.",
"V.V.V.V.V.V.V.V.V.V.V.V.V.V.$.3.6.3.4.4.4.w.I > -.3.3.3.3.3.2.3.2.2.3.2.#.3.$.2.) $ f 3.#.-.L L L L ] V.V.V.V.V.V.V.V.V.V.V.V.V.V.",
"V.V.V.V.V.V.V.V.V.V.V.V.V.V.$.3.6.3.4.4.2.:.p : -.3.3.2.3.2.2.2.2.2.2.2.$.2.$.2.( $ g 2.#.L $.L #.L [ V.V.V.V.V.V.V.V.V.V.V.V.V.V.",
"V.V.V.V.V.V.V.V.V.V.V.V.V.V.#.3.3.3.3.3.3.:.j : #.5.$.3.2.2.2.2.$.$.$.$.$.#.$.$.) $ z 2.L $.L L L L ' V.V.V.V.V.V.V.V.V.V.V.V.V.V.",
"V.V.V.V.V.V.V.V.V.V.V.V.V.V.f l x f f l d l 3 % a d g d d d l f d d d d d d d d r O 5 x f s d s d a h V.V.V.V.V.V.V.V.V.V.V.V.V.V.",
"V.V.V.V.V.V.V.V.V.V.V.V.V.V.V.O O O O O O O . . O O O O O O O + # + O O O + O @ O X o + + + O @ O O V.V.V.V.V.V.V.V.V.V.V.V.V.V.V.",
"V.V.V.V.V.V.V.V.V.V.V.V.V.V.V.~ Y Y E Y Y Y ~ ~ Y Y Y U Y U I 1 X 1 ! ! ! Q Q Q Q W Q W W T W W T ^ V.V.V.V.V.V.V.V.V.V.V.V.V.V.V.",
"V.V.V.V.V.V.V.V.V.V.V.V.V.V.5.y.g.y.y.y.y.y.y.y.t.y.y.y.t.y.r.( $ m t.r.9.9.9.e.9.9.8.8.3.5.3.3.5.5.<.V.V.V.V.V.V.V.V.V.V.V.V.V.V.",
"V.V.V.V.V.V.V.V.V.V.V.V.V.V.J #.#.#.#.#.$.#.#.#.#.#.#.K #.L o.P $ N L L #.H L K K K K K G G L G G F ` V.V.V.V.V.V.V.V.V.V.V.V.V.V.",
"V.V.V.V.V.V.V.V.V.V.V.V.V.V.L #.-.-.#.$.#.$.#.L #.#.#.#.L L L P $ N L L #.H #.J G K L H G G G F G F ` V.V.V.V.V.V.V.V.V.V.V.V.V.V.",
"V.V.V.V.V.V.V.V.V.V.V.V.V.V.J #.L #.#.L #.L #.#.K #.J #.L #.L T $ N L L J H F J L K H H F G F F F F ` V.V.V.V.V.V.V.V.V.V.V.V.V.V.",
"V.V.V.V.V.V.V.V.V.V.V.V.V.V.J #.#.L L L L #.L L L L #.L L K K P % M L G G L J J J G F F G F F F F F ( V.V.V.V.V.V.V.V.V.V.V.V.V.V.",
"V.V.V.V.V.V.V.V.V.V.V.V.V.V.J L L #.L L L L L L #.K J L L K K c % M L G J G G G G F F F F F F F F D ` V.V.V.V.V.V.V.V.V.V.V.V.V.V.",
"V.V.V.V.V.V.V.V.V.V.V.V.V.V.G K L L L L L L L L L J L K K K K P $ M L G J F F G F F F F F F F F F D ` V.V.V.V.V.V.V.V.V.V.V.V.V.V.",
"V.V.V.V.V.V.V.V.V.V.V.V.V.V.G G L L L L G L L L J J J J G K F c $ M G G F F F F F F F F F F F S D F ` V.V.V.V.V.V.V.V.V.V.V.V.V.V.",
"V.V.V.V.V.V.V.V.V.V.V.V.V.V.G K K G K K J J J J J J J J G G F c $ n G F G G F F F F F F F F A F D D ( V.V.V.V.V.V.V.V.V.V.V.V.V.V.",
"V.V.V.V.V.V.V.V.V.V.V.V.V.V.A F F G F F D F D F F D D S D F D c $ n S A A A A D A A Z A Z A A A A Z / V.V.V.V.V.V.V.V.V.V.V.V.V.V.",
"V.V.V.V.V.V.V.V.V.V.V.V.V.V.w w 7 w 7 7 w 7 7 w 7 w e w 7 7 w r V.V.7 7 6 6 6 6 6 6 6 6 6 6 6 6 6 6 t V.V.V.V.V.V.V.V.V.V.V.V.V.V.",
"V.V.V.V.V.V.V.V.V.V.V.V.V.V.V.V.V.V.V.V.V.V.V.V.V.V.V.V.V.V.V.V.V.V.V.V.V.V.V.V.V.V.V.V.V.V.V.V.V.V.V.V.V.V.V.V.V.V.V.V.V.V.V.V.V.",
"V.V.V.V.V.V.V.V.V.V.V.V.V.V.V.V.V.V.V.V.V.V.V.V.V.V.V.V.V.V.V.V.V.V.V.V.V.V.V.V.V.V.V.V.V.V.V.V.V.V.V.V.V.V.V.V.V.V.V.V.V.V.V.V.V.",
"V.V.V.V.V.V.V.V.V.V.V.V.V.V.V.V.V.V.V.V.V.V.V.V.V.V.V.V.V.V.V.V.V.V.V.V.V.V.V.V.V.V.V.V.V.V.V.V.V.V.V.V.V.V.V.V.V.V.V.V.V.V.V.V.V.",
"V.V.V.V.V.V.V.V.V.V.V.V.V.V.V.V.V.V.V.V.V.V.V.V.V.V.V.V.V.V.V.V.V.V.V.V.V.V.V.V.V.V.V.V.V.V.V.V.V.V.V.V.V.V.V.V.V.V.V.V.V.V.V.V.V.",
"V.V.V.V.V.V.V.V.V.V.V.V.V.V.V.V.V.V.V.V.V.V.V.V.V.V.V.V.V.V.V.V.V.V.V.V.V.V.V.V.V.V.V.V.V.V.V.V.V.V.V.V.V.V.V.V.V.V.V.V.V.V.V.V.V.",
"V.V.V.V.V.V.V.V.V.V.V.V.V.V.V.V.V.V.V.V.V.V.V.V.V.V.V.V.V.V.V.V.V.V.V.V.V.V.V.V.V.V.V.V.V.V.V.V.V.V.V.V.V.V.V.V.V.V.V.V.V.V.V.V.V.",
"V.V.V.V.V.V.V.V.V.V.V.V.V.V.V.V.V.V.V.V.V.V.V.V.V.V.V.V.V.V.V.V.V.V.V.V.V.V.V.V.V.V.V.V.V.V.V.V.V.V.V.V.V.V.V.V.V.V.V.V.V.V.V.V.V.",
"V.V.V.V.V.V.V.V.V.V.V.V.V.V.V.V.V.V.V.V.V.V.V.V.V.V.V.V.V.V.V.V.V.V.V.V.V.V.V.V.V.V.V.V.V.V.V.V.V.V.V.V.V.V.V.V.V.V.V.V.V.V.V.V.V.",
"V.V.V.V.V.V.V.V.V.V.V.V.V.V.V.V.V.V.V.V.V.V.V.V.V.V.V.V.V.V.V.V.V.V.V.V.V.V.V.V.V.V.V.V.V.V.V.V.V.V.V.V.V.V.V.V.V.V.V.V.V.V.V.V.V.",
"V.V.V.V.V.V.V.V.V.V.V.V.V.V.V.V.V.V.V.V.V.V.V.V.V.V.V.V.V.V.V.V.V.V.V.V.V.V.V.V.V.V.V.V.V.V.V.V.V.V.V.V.V.V.V.V.V.V.V.V.V.V.V.V.V.",
"V.V.V.V.V.V.V.V.V.V.V.V.V.V.V.V.V.V.V.V.V.V.V.V.V.V.V.V.V.V.V.V.V.V.V.V.V.V.V.V.V.V.V.V.V.V.V.V.V.V.V.V.V.V.V.V.V.V.V.V.V.V.V.V.V.",
"V.V.V.V.V.V.V.V.V.V.V.V.V.V.V.V.V.V.V.V.V.V.V.V.V.V.V.V.V.V.V.V.V.V.V.V.V.V.V.V.V.V.V.V.V.V.V.V.V.V.V.V.V.V.V.V.V.V.V.V.V.V.V.V.V.",
"V.V.V.V.V.V.V.V.V.V.V.V.V.V.V.V.V.V.V.V.V.V.V.V.V.V.V.V.V.V.V.V.V.V.V.V.V.V.V.V.V.V.V.V.V.V.V.V.V.V.V.V.V.V.V.V.V.V.V.V.V.V.V.V.V.",
"V.V.V.V.V.V.V.V.V.V.V.V.V.V.V.V.V.V.V.V.V.V.V.V.V.V.V.V.V.V.V.V.V.V.V.V.V.V.V.V.V.V.V.V.V.V.V.V.V.V.V.V.V.V.V.V.V.V.V.V.V.V.V.V.V."
};
