/* XPM */
static char *result[] = {
/* columns rows colors chars-per-pixel */
"65 65 202 2 ",
"   c #010100",
".  c #0A0602",
"X  c #0C0A04",
"o  c #05090B",
"O  c #130D04",
"+  c #1B0F07",
"@  c #110E08",
"#  c #141106",
"$  c #1B1504",
"%  c #1F1807",
"&  c #151209",
"*  c #1A170C",
"=  c #1F1B0E",
"-  c #0B1216",
";  c #201701",
":  c #221A05",
">  c #291E02",
",  c #251509",
"<  c #291609",
"1  c #231D0D",
"2  c #2B1A0B",
"3  c #2A210B",
"4  c #27230E",
"5  c #372908",
"6  c #252210",
"7  c #292512",
"8  c #2C2913",
"9  c #332E14",
"0  c #372E15",
"q  c #353117",
"w  c #3D3516",
"e  c #39321A",
"r  c #3E391A",
"t  c #1B2B36",
"y  c #41240E",
"u  c #4B3603",
"i  c #4D3803",
"p  c #44320B",
"a  c #543D04",
"s  c #453510",
"d  c #4E3B12",
"f  c #44391C",
"g  c #523E12",
"h  c #422711",
"j  c #643C1A",
"k  c #483E20",
"l  c #48421F",
"z  c #544519",
"x  c #5B4204",
"c  c #674A04",
"v  c #775605",
"b  c #75421B",
"n  c #6D561C",
"m  c #6B551C",
"M  c #72591E",
"N  c #4E4423",
"B  c #514624",
"V  c #554C24",
"C  c #5C5427",
"Z  c #665E2B",
"A  c #6A5C2D",
"S  c #65562D",
"D  c #735328",
"F  c #766A2C",
"G  c #6F6530",
"H  c #736A32",
"J  c #786935",
"K  c #766B30",
"L  c #315065",
"P  c #385B72",
"I  c #3E657F",
"U  c #865612",
"Y  c #8A6613",
"T  c #AF7F08",
"R  c #A67807",
"E  c #844F23",
"W  c #995B28",
"Q  c #975A27",
"!  c #826722",
"~  c #886A23",
"^  c #927326",
"/  c #9D7C29",
"(  c #816E39",
")  c #817533",
"_  c #84733A",
"`  c #8B7C3D",
"'  c #87773A",
"]  c #A3612A",
"[  c #AE6529",
"{  c #B46226",
"}  c #B46B2F",
"|  c #B5662A",
" . c #B96E30",
".. c #CE712C",
"X. c #D6752E",
"o. c #D9772E",
"O. c #DC782F",
"+. c #CE7B36",
"@. c #C07332",
"#. c #D67F38",
"$. c #D77D35",
"%. c #E17B30",
"&. c #917C40",
"*. c #B28108",
"=. c #8E833E",
"-. c #93863D",
";. c #9A8B3B",
":. c #AB8227",
">. c #AE892E",
",. c #A3812B",
"<. c #B38D2F",
"1. c #B88A2A",
"2. c #BF912B",
"3. c #B29438",
"4. c #DB9F09",
"5. c #D79C09",
"6. c #C69009",
"7. c #DFA20A",
"8. c #EBAB0B",
"9. c #E5A60A",
"0. c #FAB70F",
"q. c #C9992D",
"w. c #DD843A",
"e. c #D78038",
"r. c #C09833",
"t. c #EE8233",
"y. c #E1863B",
"u. c #E5883C",
"i. c #F3913F",
"p. c #F08934",
"a. c #CEA236",
"s. c #D4A131",
"d. c #DAA531",
"f. c #DDA831",
"g. c #E1AB33",
"h. c #F6BB37",
"j. c #F6BC3A",
"k. c #FABD38",
"l. c #F5BA37",
"z. c #EEB536",
"x. c #FCC03B",
"c. c #998344",
"v. c #9A8444",
"b. c #A38B48",
"n. c #A78C45",
"m. c #AC944C",
"M. c #AB9D4A",
"N. c #A69744",
"B. c #B19F42",
"V. c #BA9F53",
"C. c #AFA14C",
"Z. c #B8A64A",
"A. c #BEA255",
"S. c #BDAD51",
"D. c #CDB94E",
"F. c #CBB74D",
"G. c #C7AA58",
"H. c #C5B555",
"J. c #CEBD59",
"K. c #CAB957",
"L. c #D5B65F",
"P. c #DCB857",
"I. c #D2BC4E",
"U. c #E2BC59",
"Y. c #DCBC62",
"T. c #D8C458",
"R. c #FAC344",
"E. c #F9C54A",
"W. c #F6C043",
"Q. c #E3CB56",
"!. c #F8CC5B",
"~. c #F5C754",
"^. c #ECD45A",
"/. c #F2DA5C",
"(. c #F0D354",
"). c #FBE15F",
"_. c #DECC60",
"`. c #E3C265",
"'. c #EDCA69",
"]. c #E4CC63",
"[. c #F8CF62",
"{. c #F1CE6A",
"}. c #E5D363",
"|. c #EAD664",
" X c #ECD966",
".X c #F9D164",
"XX c #F1DC65",
"oX c #F5D16D",
"OX c #F8D46E",
"+X c #F4DF68",
"@X c #FCD770",
"#X c #FCD870",
"$X c #FAE66C",
"%X c #FFEB6E",
"&X c #F7E166",
"*X c #FFEF71",
"=X c #FFF071",
"-X c #477491",
";X c #5082A3",
":X c #6FB6E3",
">X c #7CCAFE",
",X c None",
/* pixels */
",X,X,X,X,X,X,X,X,X,X,X,X,X,X,X,X,X,X,X,X,X,X,X,X,X,X,X,X,X,X,X,X,X,X,X,X,X,X                  ,X,X,X,X,X,X,X,X,X,X,X,X,X,X,X,X,X,X",
",X,X,X,X,X,X,X,X,X,X,X,X,X,X,X,X,X,X,X,X,X,X,X,X,X,X,X,X,X,X,X,X,X,X,X,X,X    # 4 6 X           ,X,X,X,X,X,X,X,X,X,X,X,X,X,X,X,X,X",
",X,X,X,X,X,X,X,X,X,X,X,X,X,X,X,X,X,X,X,X    ,X,X,X,X,X,X,X,X,X,X,X,X,X,X  @ J T.|.|.S.C .   5 X   ,X,X,X,X,X,X,X,X,X,X,X,X,X,X,X,X",
",X,X,X,X,X,X,X,X,X,X,X,X,X,X,X,X,X,X,X      ,X,X,X,X,X,X,X,X,X,X,X,X,X  # M.*X$X|. X=X$XJ o 5 Y X   ,X,X,X,X,X,X,X,X,X,X,X,X,X,X,X",
",X,X,X,X,X,X,X,X,X,X,X,X,X,X,X,X,X,X,X  o o   ,X,X,X,X,X,X,X,X,X,X,X    K %X XG 6 8 c.$X&XN   R v     ,X,X,X,X,X,X,X,X,X,X,X,X,X,X",
",X,X,X,X,X,X,X,X,X,X,X,X,X,X,X,X,X    - ;XI o     ,X,X,X,X,X,X,X,X,X  & D.%XJ   O X o M.=XN.  x 6.X   ,X,X,X,X,X,X,X,X,X,X,X,X,X,X",
",X,X,X,X,X,X,X,X,X,X,X,X,X,X,X,X,X    P >X:Xt     ,X,X,X,X,X,X,X,X,X  8 Q.&Xr . [ E   G *X_.f Y 9.;   ,X,X,X,X,X,X,X,X,X,X,X,X,X,X",
",X,X,X,X,X,X,X,X,X,X,X,X,X,X,X,X,X    - -XL       ,X,X,X,X,X,X,X,X,X  q ^.&Xq O +.]   Z *X$X(.0.8.>   ,X,X,X,X,X,X,X,X,X,X,X,X,X,X",
",X,X,X,X,X,X,X,X,X,X,X,X,X,X,X,X,X,X,X  o     ,X,X,X,X,X,X,X,X,X,X,X  9 ^.XXq O +.]   Z %X%XT.8.9.>   ,X,X,X,X,X,X,X,X,X,X,X,X,X,X",
",X,X,X,X,X,X,X,X,X,X,X,X,X,X,X,X,X,X,X      ,X,X,X,X,X,X,X,X,X,X,X,X  9 ^.XXq O +.]   Z %X_.q c 9.>   ,X,X,X,X,X,X,X,X,X,X,X,X,X,X",
",X,X,X,X,X,X,X,X,X,X,X,X,X,X,X,X,X,X,X,X    ,X,X,X,X,X,X,X,X,X,X,X,X  9 ^.XXq O #.]   Z =XT.O 5 9.>   ,X,X,X,X,X,X,X,X,X,X,X,X,X,X",
",X,X,X,X,X,X,X,X,X,X,X,X,X,X,X,X,X,X,X,X,X,X,X,X,X,X,X,X,X,X,X,X,X,X  4 Q./.r . ] b   H =XS.X i 5.$   ,X,X,X,X,X,X,X,X,X,X,X,X,X,X",
",X,X,X,X,X,X,X,X,X,X,X,X,X,X,X,X,X,X,X,X,X,X,X,X,X,X,X,X,X,X,X,X,X,X  X Z.).)   .   X C.=X=.  v *..   ,X,X,X,X,X,X,X,X,X,X,X,X,X,X",
",X,X,X,X,X,X,X,X,X,X,X,X,X,X,X,X,X,X,X              ,X,X,X,X,X,X,X,X,X  z (.(.) q r N.%XT.7 . T u   ,X,X,X,X,X,X,X,X,X,X,X,X,X,X,X",
",X,X,X,X,X,X,X,X,X,X,X,X,X,X,X,X,X    . X X             ,X,X,X,X,X,X,X  o Z Q.).XX&X%XT.N   u x     ,X,X,X,X,X,X,X,X,X,X,X,X,X,X,X",
",X,X,X,X,X,X,X,X,X,X,X,X,X,X,X,X  o V M.J.H.c.9     :     ,X,X,X,X,X,X,X    q ) N.3.G 4     #     ,X,X,X,X,X,X,X,X,X,X,X,X,X,X,X,X",
",X,X,X,X,X,X,X,X,X,X,X,X,X,X,X  X -.$X=X$X*X=X_.V   u c     ,X,X,X,X,X,X,X                      ,X,X,X,X,X,X,X,X,X,X,X,X,X,X,X,X,X",
",X,X,X,X,X,X,X,X,X,X,X,X,X,X    G $X&X-.N V S.*X}.8 . *.i   ,X,X,X,X,X,X,X,X,X,X          ,X,X,X,X,X,X,X,X,X,X,X,X,X,X,X,X,X,X,X,X",
",X,X,X,X,X,X,X,X,X,X,X,X,X,X  & D.%X`       * K.=X`   v *..   ,X,X,X,X,X,X,X,X,X,X,X,X,X,X,X,X,X,X,X,X,X,X,X,X,X,X,X,X,X,X,X,X,X,X",
",X,X,X,X,X,X,X,X,X,X,X,X,X,X  9 ^.XXq . W j   ' =XS.. a 5.$   ,X,X,X,X,X,X,X,X,X,X,X,X,X,X,X,X,X,X,X,X,X,X,X,X,X,X,X,X,X,X,X,X,X,X",
",X,X,X,X,X,X,X,X,X,X,X,X,X,X  r /.|.8 + e.W   H *XH.X i 4.:   ,X,X,X,X,X,X,X,X,X,X,X,X,X,X,X,X,X,X,X,X,X,X,X,X,X,X,X,X,X,X,X,X,X,X",
",X,X,X,X,X,X,X,X,X,X,X,X,X,X  w /. X7 + e.Q   H *XH.o i 4.$   ,X,X,X,X,X,X,X,X,X,X,X,X,X,X,X,X,X,X,X,X,X,X,X,X,X,X,X,X,X,X,X,X,X,X",
",X,X,X,X,X,X,X,X,X,X,X,X,X,X  w /.|.8 + e.Q   H *XH.X i 4.;   ,X,X,X,X,X,X,X,X,X,X,X,X,X,X,X,X,X,X,X,X,X,X,X,X,X,X,X,X,X,X,X,X,X,X",
",X,X,X,X,X,X,X,X,X,X,X,X,X,X  w ^.|.7 $ e.W   H *XH.X i 4.;   ,X,X,X,X,X,X,X,X,X,X,X,X,X,X,X,X,X,X,X,X,X,X,X,X,X,X,X,X,X,X,X,X,X,X",
",X,X,X,X,X,X,X,X,X,X,X,X,X,X  9 ^.^.8 O  .E   J =XS.o x 5.$   ,X,X,X,X,X,X,X,X,X,X,X,X,X,X,X,X,X,X,X,X,X,X,X,X,X,X,X,X,X,X,X,X,X,X",
",X,X,X,X,X,X,X,X,X,X,X,X,X,X  & D.).Z   : O . C.=X=.  v *..   ,X,X,X,X,X,X,X,X,X,X,X,X,X,X,X,X,X,X,X,X,X,X,X,X,X,X,X,X,X,X,X,X,X,X",
",X,X,X,X,X,X,X,X,X,X,X,X,X,X    F ).T.z & 1 ' $X|.8 . T a   ,X,X,X,X,X,X,X,X,X,X,X,X,X,X,X,X,X,X,X,X,X,X,X,X,X,X,X,X,X,X,X,X,X,X,X",
",X,X,X,X,X,X,X,X,X,X,X,X,X,X,X  X ;././.T._.%X|.C   u v .   ,X,X,X,X,X,X,X,X,X,X,X,X,X,X,X,X,X,X,X,X,X,X,X,X,X,X,X,X,X,X,X,X,X,X,X",
",X,X,X,X,X,X,X,X,X,X,X,X,X,X,X,X  X C C.I.F.;.w     : .   ,X,X,X,X,X,X,X,X,X,X,X,X,X,X,X,X,X,X,X,X,X,X,X,X,X,X,X,X,X,X,X,X,X,X,X,X",
",X,X,X,X,X,X,X,X,X,X,X,X,X,X,X,X,X    . # O             ,X,X,X,X,X,X,X,X,X,X,X,X,X,X,X,X,X,X,X,X,X,X,X,X,X,X,X,X,X,X,X,X,X,X,X,X,X",
",X,X,X,X,X,X,X,X,X,X,X,X,X,X,X,X,X,X,X              ,X,X,X,X,X,X,X,X,X,X,X,X,X,X,X,X,X,X,X,X,X,X,X,X,X,X,X,X,X,X,X,X,X,X,X,X,X,X,X",
",X,X,X,X,X,X,X,X,X,X,X,X,X,X,X,X,X,X,X,X,X,X,X,X,X,X,X,X,X,X,X,X,X,X,X,X,X,X,X,X,X,X,X,X,X,X,X,X,X,X,X,X,X,X,X,X,X,X,X,X,X,X,X,X,X",
",X,X,X,X,X,X,X,X,X,X,X,X,X,X,X                                                                      ,X,X,X,X,X,X,X,X,X,X,X,X,X,X,X",
",X,X,X,X,X,X,X,X,X,X,X,X,X,X  . , < < 2 2 2 2 < 2 2 2 2 2 2 2 2 2 2 2 2 2 2 2 2 2 < 2 2 2 2 2 2 , .   ,X,X,X,X,X,X,X,X,X,X,X,X,X,X",
",X,X,X,X,X,X,X,X,X,X,X,X,X    b o.O.O.$.y.y.u.y.y.y.y.y.y.y.u.y.y.y.y.y.y.y.y.y.y.y.y.y.y.y.y.y.w.b     ,X,X,X,X,X,X,X,X,X,X,X,X,X",
",X,X,X,X,X,X,X,X,X,X,X,X,X  . { t...{ | } } } } } } } } } } } } } } } } } } } } } } } } } } } +.i. ..   ,X,X,X,X,X,X,X,X,X,X,X,X,X",
",X,X,X,X,X,X,X,X,X,X,X,X,X  . { %.y   . o                           .         .       .     o h u. ..   ,X,X,X,X,X,X,X,X,X,X,X,X,X",
",X,X,X,X,X,X,X,X,X,X,X,X,X  . { o., . s g B B B N B B B N N V B B B B B B B B B N B B B B k . , w. ..   ,X,X,X,X,X,X,X,X,X,X,X,X,X",
",X,X,X,X,X,X,X,X,X,X,X,X,X  . @.o., % d.r.m.'.oXoXoX.XY.Y.L.L.Y.L.L.L.L.L.L.Y.oXOXoX{.V.m.L.= , w. .X   ,X,X,X,X,X,X,X,X,X,X,X,X,X",
",X,X,X,X,X,X,X,X,X,X,X,X,X  . { o., % q.3 . V.@X@X{.( 7 * * & * * * = * * * 7 &.{.@X`.7 @ b.6 , w. ..   ,X,X,X,X,X,X,X,X,X,X,X,X,X",
",X,X,X,X,X,X,X,X,X,X,X,X,X  . { o., % s.n g Y.@X#Xm.. X 1 3 2 3 3 2 3 3 3 3 . # G.#X'.A B V.= , w. ..   ,X,X,X,X,X,X,X,X,X,X,X,X,X",
",X,X,X,X,X,X,X,X,X,X,X,X,X  . { o., : f.U.!.OX@X#X(   M a.<.>.>.<.>.>.>.<.a.z   c.OXOXoX{.Y.= < w. ..   ,X,X,X,X,X,X,X,X,X,X,X,X,X",
",X,X,X,X,X,X,X,X,X,X,X,X,X  . { o., $ f.R.oXOXOX#X(   ! ^ & & O # O O # * ,.n   c.#XOXOX@XY.= , w. ..   ,X,X,X,X,X,X,X,X,X,X,X,X,X",
",X,X,X,X,X,X,X,X,X,X,X,X,X  . { o., : f.R.oXOXOX#XJ   ! M   1 9 9 9 9 *   ! n   c.#XoXOX@X_.= , w. ..   ,X,X,X,X,X,X,X,X,X,X,X,X,X",
",X,X,X,X,X,X,X,X,X,X,X,X,X  . { o., % f.R.OXOXOX#X(   d w   &.'.'.'.{.J   ! n   c.#XOXOX@XY.= , w. .X   ,X,X,X,X,X,X,X,X,X,X,X,X,X",
",X,X,X,X,X,X,X,X,X,X,X,X,X  . { o., % f.R.OXOXOXOXc.      . m.@XoX@X@XG   ! n   c.#XOXOXOXY.= , w. ..   ,X,X,X,X,X,X,X,X,X,X,X,X,X",
",X,X,X,X,X,X,X,X,X,X,X,X,X  . { o., , d.R.oXOXOXOX'.v.( ( b.'.@XoXG.A @   ^ D   c.#XOXOX@XY.= , w. ..   ,X,X,X,X,X,X,X,X,X,X,X,X,X",
",X,X,X,X,X,X,X,X,X,X,X,X,X  . { X., : g.R.OXOXOXOXOX#X@X@X@XoXY.J *   * M r.d   v.#XOXOXOXY.= , w. ..   ,X,X,X,X,X,X,X,X,X,X,X,X,X",
",X,X,X,X,X,X,X,X,X,X,X,X,X  . { o., ; f.R..XOXOXOXOXOXOXOX@XV.7   @ m >.^ 9   = L.@XOXOX@XY.= , w. ..   ,X,X,X,X,X,X,X,X,X,X,X,X,X",
",X,X,X,X,X,X,X,X,X,X,X,X,X  . { o., : d.U.[.OXOXOXOXOXOXOXoXB   z >./ s     k V.oXOXOXOX@XY.= 1 w. ..   ,X,X,X,X,X,X,X,X,X,X,X,X,X",
",X,X,X,X,X,X,X,X,X,X,X,X,X  . { O., + g.k.!.#XOXOXOXOXOXoX'.e X <.m .   e b.'.@XoXOXOXoXOXY.= , w. ..   ,X,X,X,X,X,X,X,X,X,X,X,X,X",
",X,X,X,X,X,X,X,X,X,X,X,X,X  . { O.2 2 g.k.x..XOXOXOXOXOX@X'.e   0 . . ' `.@XOXOXOXOXOXOX@XY.= , w. ..   ,X,X,X,X,X,X,X,X,X,X,X,X,X",
",X,X,X,X,X,X,X,X,X,X,X,X,X  . { t.{ 1.h.k.k.!.@XOXOXOXOXOXoXA X . . k '.@XOXOXoXOXOXOXOXOXY.= , w. ..   ,X,X,X,X,X,X,X,X,X,X,X,X,X",
",X,X,X,X,X,X,X,X,X,X,X,X,X  . { t.p.k.k.k.l.R..XOXoXOXOXoX@X`.c._ ` L.@XOXOXOXOXOXoXOXOX@XY.= , w. ..   ,X,X,X,X,X,X,X,X,X,X,X,X,X",
",X,X,X,X,X,X,X,X,X,X,X,X,X  . { %.E ~ l.k.k.k.R.oX@XOXoXOXOX_ * @ & S '.OXOXOXOXOXOXOXOX@XY.= , w. .X   ,X,X,X,X,X,X,X,X,X,X,X,X,X",
",X,X,X,X,X,X,X,X,X,X,X,X,X. . { o., : g.j.z.k.k.E..XOXOX@X'.e   3 . & Y.OXOXOXOXOXoXOXoXoXY.= , w. ..   ,X,X,X,X,X,X,X,X,X,X,X,X,X",
",X,X,X,X,X,X,X,X,X,X,X,X,X  . { o., % s.n s s.k.k.x.!.!.OX'.e . ^ , * Y.oX@XoX@X@X@X'.A B V.= 2 w. ..   ,X,X,X,X,X,X,X,X,X,X,X,X,X",
",X,X,X,X,X,X,X,X,X,X,X,X,X  . { o., % q.5 . q.k.k.k.k.U.~.~.f   X   * P.[.[.[.[.[.[.U.4 . n.= , w. ..   ,X,X,X,X,X,X,X,X,X,X,X,X,X",
",X,X,X,X,X,X,X,X,X,X,X,X,X  . { o., % d.2./ z.h.k.h.l.l.l.l./ p 5 5 ~ j.j.j.j.j.l.j.l.2.:.s., , w. ..   ,X,X,X,X,X,X,X,X,X,X,X,X,X",
",X,X,X,X,X,X,X,X,X,X,X,X,X  . { X., . s g g g d d d d g d g g s w p d d d d d d d d d g g s . , O.} .   ,X,X,X,X,X,X,X,X,X,X,X,X,X",
",X,X,X,X,X,X,X,X,X,X,X,X,X  . { %.y .       .     .         .   .             .     .       . 5 %.| .   ,X,X,X,X,X,X,X,X,X,X,X,X,X",
",X,X,X,X,X,X,X,X,X,X,X,X,X  . { t...{ { { { { { { { { { { { { { { { { { | { { { { { { { { { { X.t.| .   ,X,X,X,X,X,X,X,X,X,X,X,X,X",
",X,X,X,X,X,X,X,X,X,X,X,X,X    b X.O.O.O.O.O.O.O.O.O.O.O.O.O.O.O.O.O.O.O.O.O.o.O.O.O.O.O.O.O.O.O.O.j     ,X,X,X,X,X,X,X,X,X,X,X,X,X",
",X,X,X,X,X,X,X,X,X,X,X,X,X,X  . , < < < < < < < < < < < < < < < < < < < < < < < < < < < < < < < , .   ,X,X,X,X,X,X,X,X,X,X,X,X,X,X",
",X,X,X,X,X,X,X,X,X,X,X,X,X,X,X                                                                      ,X,X,X,X,X,X,X,X,X,X,X,X,X,X,X"
};
