/* XPM */
static char *_b48f83b00724fd6a85341137b7bdeb5UZFXbtGeKcg7pAN7[] = {
/* columns rows colors chars-per-pixel */
"64 64 120 2 ",
"   c None",
".  c #000000",
"X  c #090505",
"o  c #0A0807",
"O  c #0D0C0B",
"+  c #120507",
"@  c #150608",
"#  c #120E0C",
"$  c #1C080B",
"%  c #15110E",
"&  c #18120F",
"*  c #0D1012",
"=  c #151514",
"-  c #1C1512",
";  c #1F1915",
":  c #121719",
">  c #15191C",
",  c #1C1D1D",
"<  c #250B0D",
"1  c #290C0F",
"2  c #2D0D11",
"3  c #350F13",
"4  c #221A16",
"5  c #261D19",
"6  c #281E1A",
"7  c #2D221D",
"8  c #181D21",
"9  c #1F2020",
"0  c #232424",
"q  c #222A2E",
"w  c #2D2F2E",
"e  c #332621",
"r  c #342A23",
"t  c #3B2C26",
"y  c #3A2F28",
"u  c #3B3028",
"i  c #242C31",
"p  c #2B3135",
"a  c #2B353B",
"s  c #333534",
"d  c #363837",
"f  c #373938",
"g  c #3B3D3D",
"h  c #431319",
"j  c #4A151B",
"k  c #50171D",
"l  c #55181F",
"z  c #5B1A21",
"x  c #631C24",
"c  c #681E26",
"v  c #402F29",
"b  c #43342C",
"n  c #49362F",
"m  c #4C3B32",
"M  c #563F37",
"N  c #72212A",
"B  c #7B232D",
"V  c #4F4036",
"C  c #554137",
"Z  c #534338",
"A  c #5A4339",
"S  c #2F3B41",
"D  c #334046",
"F  c #3F4141",
"G  c #37444B",
"H  c #39474E",
"J  c #404241",
"K  c #494C4B",
"L  c #5C5D5D",
"P  c #694E43",
"I  c #665245",
"U  c #6D5146",
"Y  c #6F5A4B",
"T  c #74564A",
"R  c #705A4C",
"E  c #7E6655",
"W  c #4A5B64",
"Q  c #4F606A",
"!  c #5F6060",
"~  c #5B6E7A",
"^  c #626363",
"/  c #656867",
"(  c #666A69",
")  c #6C706F",
"_  c #6D7170",
"`  c #737776",
"'  c #747877",
"]  c #757978",
"[  c #7B7F7E",
"{  c #81252F",
"}  c #872731",
"|  c #8A2833",
" . c #932A36",
".. c #992C38",
"X. c #806756",
"o. c #866C5B",
"O. c #8A6F5D",
"+. c #8B715E",
"@. c #8E7360",
"#. c #917562",
"$. c #977A66",
"%. c #BC987F",
"&. c #657B88",
"*. c #9C9C9C",
"=. c #ADAEAE",
"-. c #AFB0B0",
";. c #B4B5B5",
":. c #C29C83",
">. c #C6A086",
",. c #C8A288",
"<. c #C9A388",
"1. c #CAA389",
"2. c #CBA489",
"3. c #CCA58A",
"4. c #CDA68B",
"5. c #D2A98E",
"6. c #D2AA8E",
"7. c #D5AC90",
"8. c #D5D5D5",
"9. c #DFE0E0",
/* pixels */
"                                                                                                                                ",
"                                                          . . . . . .                                                           ",
"                                                          . . . . . .                                                           ",
"                                                      . . . . [ [ . . . .                                                       ",
"                                                  . . . . . . [ [ . . . . . .                                                   ",
"                                                . . X ^ ;.. . [ [ . . -.L X . .                                                 ",
"                                              . . > ;.9.8.. . [ [ . . 9.9.;.= . .                                               ",
"                                              . X ;.9.9.9.X . [ [ . . 9.9.9.;.X .                                               ",
"                                            . . ^ 9.9.9.9.. . [ [ . . 9.9.9.9.L . .                                             ",
"                                      . . . . . . . . . . . . [ [ . . . . . . . . . . . .                                       ",
"                                      . . . . . . . . . . . , [ [ , . . . . . . . . . . .                                       ",
"                                      . . [ [ [ [ [ [ [ [ [ [ [ [ [ [ [ [ [ [ [ [ [ [ . .                                       ",
"                                      . . [ [ [ [ [ [ [ [ [ [ [ [ [ [ [ [ [ [ [ [ [ [ . .                                       ",
"                                      . . . . . . . . . . . . . . . . . . . . . . . . . .                                       ",
"                                      . . . . . . . . . . . . . . . . . . . . . . . . . .                                       ",
"                                        . . . . &.&.&.&.&.&.&.&.&.&.&.&.&.&.&.&.. . . .                                         ",
"                                        . O . . &.&.&.&.&.&.&.&.&.&.&.&.&.&.&.&.. . O .                                         ",
"                                      . . J . . 8 p H W ~ W a * * a Q ~ W H p 8 . . F . .                                       ",
"                                      . X ` . . . . . . . . . . . . . . . . . . . . ' X .                                       ",
"                                    . . d [ X . *.[ L d = , ^ -.;.^ , O s L [ *.. o [ f . .                                     ",
"                                    . . _ [ : . =.9.9.9.9.9.9.9.8.9.9.9.9.9.9.-.. = [ _ . .                                     ",
"                                  . . w [ [ d . ^ 9.9.9.9.9.9.9.9.9.9.9.9.9.9.^ . f [ [ w . .                                   ",
"                                  . . / [ [ ( . X ;.9.9.9.9.9.9.9.9.9.9.9.9.;.X . ( [ [ ( . .                                   ",
"                                  . 0 [ [ [ [ d . > ;.9.9.9.9.9.9.9.9.9.8.;.> . f [ [ [ [ 0 .                                   ",
"                                . . L ( K s 9 = . . . ! =.8.9.9.9.9.8.=.L . . . = , s K ( L . .                                 ",
"                                . . O . . . . . . . . . . . . . . X . . . . . . . . . . . O . .                                 ",
"                              . . . . . .           . . 5 o . . . . O 5 . .           . . . . . .                               ",
"                              . . .                 . . 7.7.7.7.7.7.7.7.. .                 . . .                               ",
"                                        . . . . . . . . u I #.%.:.#.I u . . . . . . . .                                         ",
"                                  . . . . . . . . . . . . . . . . . . . . . . . . . . . . . .                                   ",
"      . . . .           . . . . . . . r b . 3 ........} c j 2 X X 2 j c } ........3 . n r . . . . . . .           . . . .       ",
"      . . . . . . . . . . . . # Z @.2.7.m . z ....................................z . m 7.1.@.Z % . . . . . . . . . . . .       ",
"      . . 9 g 0 o O , 0 . . r 1.7.7.7.7.% . } ....................................{ . % 7.7.7.7.2.u . . , , O O 0 g 9 . .       ",
"        . * [ [ [ [ g . . . o.6.7.7.7.7.% . { ....................................{ . % 7.7.7.7.7.o.. . . p [ [ [ [ O .         ",
"        . . ! [ ' , . . 7 . ; 6.7.7.7.7.m . z ....................................z . m 7.7.7.7.6.4 . 7 . . : ' [ ! . .         ",
"        . . s F X . X C T # . o.7.7.7.7.E . 3 ....................................3 . E 7.7.7.7.o.. O T A X . X g s . .         ",
"          . . . . . 5 T T n . ; 6.7.4.$.m . . ....................................X . m $.2.7.6.4 . n T T 5 . . . . .           ",
"      . . . . n E X . n T T # . Z b o . . . . @ < 3 h l x N {  . .{ N x l h 3 < + . . . . o b Z . # U T n . X E n . . . .       ",
"      . # Y :.7.6.o.. . m t O . . . . .   . . . . . . . . . . . . . . . . . . . . . .   . . . . . O t M X . o.7.7.:.R % .       ",
"    . . o.7.7.7.7.7.Z . . . . . .           . & C n v e 6 - # X . # - 6 e v n C & .           . . . . . . V 6.7.7.7.7.o.. .     ",
"    . ; 6.7.7.7.7.7.2.. . .                 . . U T T T T T T T T T T T T T T U . .                 . . . 4.7.7.7.7.7.6.; .     ",
"  . . o.7.7.7.7.7.7.7.. .                   . . X # 5 e b m A P U A M b e 4 # X . .                   . . 7.7.7.7.7.7.7.o.. .   ",
"  . . >.7.7.7.7.7.7.1.. .                     . . . . . . . . . . . . . . . . . .                     . . 2.7.7.7.7.7.7.>.. .   ",
"  . . @.7.7.7.7.7.7.@.. .                     . + B c l h 2 $ X X $ 2 h l c B + .                     . . #.7.7.7.7.7.7.+.. .   ",
"    . % :.6.7.7.7.>.; .                     . . $ ............................$ . .                     . 4 >.6.7.6.7.:.% .     ",
"    . . = O.<.2.#.; . .                     . . . . @ k } ............| k @ . . . .                     . . = +.2.1.O.% . .     ",
"      . . . . . . . .                     . . . . . . . . 2 x ....N 3 . . . . . . . .                     . . . . . . . .       ",
"          . . . .                       . . > H H H a : . . . . . . . . : a H H H > . .                       . . . .           ",
"                                        . X G H H H H H D * . . . . * D H H H H H G X .                                         ",
"                                        . > H H H H H H i . .     . . i H H H H H H > .                                         ",
"                                      . . q H H H H H S . .         . . S H H H H H q . .                                       ",
"                                    . . . . . . . . . . . .         . . . . . . . . . . . .                                     ",
"                                    . . . . . . . . . . .             . . . . . . . . . . .                                     ",
"                                    . - T T T T T T e . .             . . e T T T T T T - .                                     ",
"                                    . 7 T T T T T T O .                 . O T T T T T T 7 .                                     ",
"                                  . . b T T T T T A . .                 . . A T T T T T b . .                                   ",
"                                  . . C T T T T T e . .                 . . e T T T T T M . .                                   ",
"                          . . . . . . P T T T T T # .                     . O T T T T T P . . . . . .                           ",
"                        . . . . . . 4 T T T T T T o .                     . o T T T T T T ; . . . . . .                         ",
"                        . . A T T T T T T T T T T 6 .                     . 6 T T T T T T T T T T A . .                         ",
"                        . . T T T T T T T T T T T b . .                 . . b T T T T T T T T T T T . .                         ",
"                        . . . . . . . . . . . . . . . .                 . . . . . . . . . . . . . . . .                         ",
"                        . . . . . . . . . . . . . . . .                 . . . . . . . . . . . . . . . .                         ",
"                                                                                                                                "
};
