/* XPM */
static char *result[] = {
/* columns rows colors chars-per-pixel */
"65 65 90 1 ",
"  c #323F5D",
". c #32405D",
"X c #32405E",
"o c #354859",
"O c #364859",
"+ c #2F486A",
"@ c #314362",
"# c #304667",
"$ c #304767",
"% c #324B64",
"& c #30496A",
"* c #355066",
"= c #2E4C70",
"- c #2D5075",
"; c #2D5176",
": c #2D5077",
"> c #2D5177",
", c #2D5178",
"< c #2D5278",
"1 c #2D567D",
"2 c #345972",
"3 c #345973",
"4 c #315F7F",
"5 c #589935",
"6 c #5DA12C",
"7 c #5EA22C",
"8 c #67B921",
"9 c #68B921",
"0 c #68BA20",
"q c #69BA20",
"w c #69BB20",
"e c #6BBA22",
"r c #6CBA22",
"t c #6EBB23",
"y c #72BD25",
"u c #77BF27",
"i c #6EAA36",
"p c #7FB33F",
"a c #7CC129",
"s c #7DC129",
"d c #7EC329",
"f c #7DC22A",
"g c #76AB48",
"h c #81C32B",
"j c #86C52D",
"k c #87C62E",
"l c #8BC72F",
"z c #8EC830",
"x c #90C931",
"c c #91C931",
"v c #93CB31",
"b c #91CA32",
"n c #92CA32",
"m c #93CA32",
"M c #94CC30",
"N c #94CC31",
"B c #95CC34",
"V c #96CC34",
"C c #96CC35",
"Z c #97CC35",
"A c #9CCE37",
"S c #A0D039",
"D c #A0D03A",
"F c #A4D23C",
"G c #A6D23C",
"H c #A6D33D",
"J c #A7D33D",
"K c #AAD43F",
"L c #ABD53F",
"P c #AFD641",
"I c #B4D844",
"U c #B4D944",
"Y c #B6D945",
"T c #B8DA46",
"R c #B9DB46",
"E c #BADB47",
"W c #BBDB47",
"Q c #BBDB48",
"! c #BBDC48",
"~ c #FED943",
"^ c #FEE342",
"/ c #FFE343",
"( c #FEE442",
") c #FFE443",
"_ c #FFEE42",
"` c #2D5A82",
"' c #2D628C",
"] c #2D6792",
"[ c #2D6994",
"{ c None",
/* pixels */
"{{{{{{{{{{{{{{{{{{{{{{{{{{{{{{{{({{{{{{{{{{{{{{{{{{{{{{{{{{{{{{{{",
"{{{{{{{{{{{{{{{{{{{{{{{{{{{{{{{{^{{{{{{{{{{{{{{{{{{{{{{{{{{{{{{{{",
"{{{{{{{{{{{{{{{{{{{{{{{{{{{{{{{_(~{{{{{{{{{{{{{{{{{{{{{{{{{{{{{{{",
"{{{{{{{{{{{{{{{{{{{{{{{{{{{{{{__^~~{{{{{{{{{{{{{{{{{{{{{{{{{{{{{{",
"{{{{{{{{{{{{{{{{{{{{{{{{{{{{{{__)~~{{{{{{{{{{{{{{{{{{{{{{{{{{{{{{",
"{{{{{{{{{{{{{{{{{{{{{{{{{{{{{___)~~~{{{{{{{{{{{{{{{{{{{{{{{{{{{{{",
"{{{{{{{{{{{{{{{{{{{{{{{{{{{{____)~~~~{{{{{{{{{{{{{{{{{{{{{{{{{{{{",
"{{{{{{{{{{{{{{{{{{{{{{{{________)~~~~~~~~{{{{{{{{{{{{{{{{{{{{{{{{",
"{{{{{{{{{{{{{{{{{{{{{{__________)~~~~~~~~~~{{{{{{{{{{{{{{{{{{{{{{",
"{{{{{{{{{{{{{{{{{{{{{{{_________)~~~~~~~~~{{{{{{{{{{{{{{{{{{{{{{{",
"{{{{{{{{{{{{{{{{{{{{{{{_________)~~~~~~~~~{{{{{{{{{{{{{{{{{{{{{{{",
"{{{{{{{{{{{{{{{{{{{{{{{{________)~~~~~~~~{{{{{{{{{{{{{{{{{{{{{{{{",
"{{{{{{{{{{{{{{{{{{{{{{{{{_______)~~~~~~~{{{{{{{{{{{{{{{{{{{{{{{{{",
"{{{{{{{{{{{{{{{{{{{{{{{{{{______)~~~~~~{{{{{{{{{{{{{{{{{{{{{{{{{{",
"{{{{{{{{{{{{{{{{{{{{{{{{{{______)~~~~~~{{{{{{{{{{{{{{{{{{{{{{{{{{",
"{{{{{{{{{{{{{{{{{{{{{{{{{{______)~~~~~~{{{{{{{{{{{{{{{{{{{{{{{{{{",
"{{{{{{{{{{{{{{{{{{{{{{{{{{______/~~~~~~{{{{{{{{{{{{{{{{{{{{{{{{{{",
"{{{{{{{{{{{{{{{{{{{{{{{{{{______(~~~~~~{{{{{{{{{{{{{{{{{{{{{{{{{{",
"{{{{{{{{{{{{{{{{{{{{{{{{{{______{~~~~~~{{{{{{{{{{{{{{{{{{{{{{{{{{",
"{{{{{{{{{{{{{{{{{{{{{{{{{{____{{{{{~~~~{{{{{{{{{{{{{{{{{{{{{{{{{{",
"{{{{{{{{{{{{{{{{{{{{{{{{{{_{{{{{{{{{{{~{{{{{{{{{{{{{{{{{{{{{{{{{{",
"{{{{{{{{{{{{{{{{{{{{{{{{{{{{{{{{{{{{{{{{{{{{{{{{{{{{{{{{{{{{{{{{{",
"{{{{{{{{{{{{{{{{{{{{{{{{{{{{{{{{{{{{{{{{{{{{{{{{{{{{{{{{{{{{{{{{{",
"{{{{{{{{{{{{{{{{{{{{{{{{{{{{{{{{{{{{{{{{{{{{{{{{{{{{{{{{{{{{{{{{{",
"{{{{{{{{{{{{{{{{{{{{{{{{{{{{{{{{{{{{{{{{{{{{{{{{{{{{{{{{{{{{{{{{{",
"{{{{{{{{{{{{{{{{{{{{{{{{{{{{{{{{{{{{{{{{{{{{{{{{{{{{{{{{{{{{{{{{{",
"{{{{{{{{{{{{{{{{{{{{{{{{{{{{{{{{{{{{{{{{{{{{{{{{{{{{{{{{{{{{{{{{{",
"{{{{{{{{{{{{{{{{{{{{{{{{{{{{{{{{{{{{{{{{{{{{{{{{{{{{{{{{{{{{{{{{{",
"{{{{{{{{{{{{{{{{{{{{{EEEEEEEEEEWHbnnnnnnnnnn{{{{{{{{{{{{{{{{{{{{{",
"{{{{{{{{{{{{{{{{{{{{{EEEEEEEEEEWGbnnnnnnnnnn{{{{{{{{{{{{{{{{{{{{{",
"{{{{{{{{{{{{{{{{{{{{{EEEEEEEEEEWHbnnnnnnnnnn{{{{{{{{{{{{{{{{{{{{{",
"{{{{{{{{{{{{{{{{{{{{{EEEEEEEEEEWHbnnnnnnnnnn{{{{{{{{{{{{{{{{{{{{{",
"{{{{{{{{{{{{{{{{{{{{{EEEEEEEEEEWHbnnnnnnnnnn{{{{{{{{{{{{{{{{{{{{{",
"{{{{{{{{{{{{{{{{{{{{{EEEEEEEEEEWHbnnnnnnnnnn{{{{{{{{{{{{{{{{{{{{{",
"{{{{{{{{{{{{{{{{{{{{{EEEEEEEEEEQHnnnnnnnnnnn{{{{{{{{{{{{{{{{{{{{{",
"{{{{{{{{{{{{{{{{{{{{{EEEYIIIIIIUDlllllllznnn{{{{{{{{{{{{{{{{{{{{{",
"{{{{{{{{{{{{{{{{{{{{{{{{ZBVVVVVVherrrrrrt{{{{{{{{{{{{{{{{{{{{{{{{",
"{{{{{{{{{{{{{{{{{{{{{{{{nnnnnnnns89999999{{{{{{{{{{{{{{{{{{{{{{{{",
"{{{{{{{{{{{{{{{{{{{{{{{{nnnnnnnmf89999999{{{{{{{{{{{{{{{{{{{{{{{{",
"{{{{{{{{{{{{{{{{{{{{{{{{nnnnnnnmf89999999{{{{{{{{{{{{{{{{{{{{{{{{",
"{{{{{{{{{{{{{{{{{{{{{{{{cbbbbbbna88888888{{{{{{{{{{{{{{{{{{{{{{{{",
"{{{{{{{{{{{{{{{{{{{{{{{{SAAAAAAAkyyyyyyyu{{{{{{{{{{{{{{{{{{{{{{{{",
"{{{{{{{{{{{{{{{{{{{{{EEERTTTTTTRFxxxxxxxbnnn{{{{{{{{{{{{{{{{{{{{{",
"{{{{{{{{{{{{{{{{{{{{{EEEEEEEEEEWHnnnnnnnnnnn{{{{{{{{{{{{{{{{{{{{{",
"{{{{{{{{{{{{{{{{{{{{{EEEEWWWWWW!Jnmmmmmmnnnn{{{{{{{{{{{{{{{{{{{{{",
"{{{{{{{{{{{{{{{{{{{{{{EEPKKKKKKLChhhhhhhjnn{{{{{{{{{{{{{{{{{{{{{{",
"{{{{{{{{{{{{{{{{{{{{{{{{nnnnnnnms89999999{{{{{{{{{{{{{{{{{{{{{{{{",
"{{{{{{{{{{{{{{{{{{{{{{{{nnnnnnnms89999999{{{{{{{{{{{{{{{{{{{{{{{{",
"{{{{{{{{{{{{{{{{{{{{{{{{nnnnnnnmf89999999{{{{{{{{{{{{{{{{{{{{{{{{",
"{{{{{{{{{{{{{{{{{{{{{{{{nnnnnnnmf89999999{{{{{{{{{{{{{{{{{{{{{{{{",
"{{{{{{{{{{{{{{{{{{{{{{{{nnnnnnnmf89999999{{{{{{{{{{{{{{{{{{{{{{{{",
"{{{{{{{{{{{{{{{{{{{{{{{{nnnnnnnmf89999999{{{{{{{{{{{{{{{{{{{{{{{{",
"{{{{{{{{{{{{{{{{{{{{{{{{nnnnnnnmf89999999{{{{{{{{{{{{{{{{{{{{{{{{",
"{{{{{{{{{{{{{{{{{{{{{{{{nnnnnnnmf89999999{{{{{{{{{{{{{{{{{{{{{{{{",
"{{{{{{{{{{{{{{{{{{{{{{{{nnnnnnnmf89999999{{{{{{{{{{{{{{{{{{{{{{{{",
"{{{{{{{{{{{{{{{{{{{{{{{{MvvvvvvNd0qqqqqqw{{{{{{{{{{{{{{{{{{{{{{{{",
"{{{{{{{{{{{{{{{{{{{{{{{{gpppppppi67777775{{{{{{{{{{{{{{{{{{{{{{{{",
"[[[[[[[]1>>>>>><'[[[[[[[42222223*ooooooO%>>>>>>>=X......@->>>>>>>",
"[[[[[[[]1>>>>>><'[[[[[[[`::::::,+ ..... #>>>>>>>=X......@->>>>>>>",
"[[[[[[[]1>>>>>><'[[[[[[[`;>>>>>>&.......$>>>>>>>=X......@->>>>>>>",
"[[[[[[[]1>>>>>><'[[[[[[[`;>>>>>>&.......$>>>>>>>=X......@->>>>>>>",
"[[[[[[[]1>>>>>><'[[[[[[[`;>>>>>>&.......$>>>>>>>=X......@->>>>>>>",
"[[[[[[[]1>>>>>><'[[[[[[[`;>>>>>>&.......$>>>>>>>=X......@->>>>>>>",
"[[[[[[[]1>>>>>><'[[[[[[[`;>>>>>>&.......$>>>>>>>=X......@->>>>>>>",
"[[[[[[[]1>>>>>><'[[[[[[[`;>>>>>>+.......$>>>>>>>=X......@->>>>>>>"
};
