/* XPM */
static char *result[] = {
/* columns rows colors chars-per-pixel */
"65 65 212 2 ",
"   c #2F3C42",
".  c #323E44",
"X  c #344146",
"o  c #364349",
"O  c #3A454B",
"+  c #3D494E",
"@  c #3F4B50",
"#  c #434A4E",
"$  c #4B4B4C",
"%  c #48454A",
"&  c #544A4D",
"*  c #5B4A49",
"=  c #59514F",
"-  c #434D53",
";  c #4B4D51",
":  c #564D52",
">  c #465156",
",  c #4A5256",
"<  c #46535A",
"1  c #4B555A",
"2  c #4D595E",
"3  c #545254",
"4  c #5D5453",
"5  c #52575A",
"6  c #515A5E",
"7  c #5A5A5D",
"8  c #59565A",
"9  c #624C4B",
"0  c #68474A",
"q  c #774649",
"w  c #64524C",
"e  c #6B544C",
"r  c #74544A",
"t  c #77594F",
"y  c #645552",
"u  c #6C5953",
"i  c #68565A",
"p  c #745A52",
"a  c #7A5C52",
"s  c #755759",
"d  c #7C5A5D",
"f  c #785457",
"g  c #734F52",
"h  c #4E5B61",
"j  c #445D69",
"k  c #535D62",
"l  c #595E62",
"z  c #6B5D61",
"x  c #675D61",
"c  c #745D61",
"v  c #566166",
"b  c #596165",
"n  c #5C6569",
"m  c #59666C",
"M  c #4E6671",
"N  c #636366",
"B  c #64696B",
"V  c #6A6D6D",
"C  c #656568",
"Z  c #7A6366",
"A  c #666D71",
"S  c #6C7172",
"D  c #6C7479",
"F  c #737473",
"G  c #75797B",
"H  c #7C7C7B",
"J  c #797977",
"K  c #DD3F3C",
"L  c #E63F3B",
"P  c #DD413E",
"I  c #E6423E",
"U  c #E9413D",
"Y  c #884547",
"T  c #87585A",
"R  c #965658",
"E  c #984C4D",
"W  c #A64746",
"Q  c #BA4949",
"!  c #AC5555",
"~  c #A45557",
"^  c #B65757",
"/  c #BE615F",
"(  c #826568",
")  c #966769",
"_  c #807E7B",
"`  c #A86C6C",
"'  c #B56D6C",
"]  c #C44C4C",
"[  c #CB4E4E",
"{  c #C74947",
"}  c #D54845",
"|  c #C35353",
" . c #CB5151",
".. c #D45152",
"X. c #DB5353",
"o. c #D45F5C",
"O. c #DA504E",
"+. c #E74642",
"@. c #E94541",
"#. c #E74A46",
"$. c #E64C48",
"%. c #E84E4A",
"&. c #E94A46",
"*. c #E8514E",
"=. c #E6504C",
"-. c #E35552",
";. c #E95451",
":. c #E95956",
">. c #EA5D59",
",. c #E75D5A",
"<. c #C9605E",
"1. c #EA625E",
"2. c #C96968",
"3. c #DA6B68",
"4. c #D67574",
"5. c #C87573",
"6. c #EB6662",
"7. c #EC6965",
"8. c #EC6D69",
"9. c #E46965",
"0. c #EC716E",
"q. c #E6716E",
"w. c #ED7572",
"e. c #EC7976",
"r. c #E77976",
"t. c #F27C78",
"y. c #83817E",
"u. c #4B7487",
"i. c #777E82",
"p. c #7C8488",
"a. c #428BAD",
"s. c #4E93B2",
"d. c #618FA4",
"f. c #3F9CC6",
"g. c #3EBEF8",
"h. c #409FCA",
"j. c #4FA9D2",
"k. c #44BBF1",
"l. c #62B0D3",
"z. c #858582",
"x. c #8B8985",
"c. c #868989",
"v. c #928C86",
"b. c #938E89",
"n. c #97928D",
"m. c #878E92",
"M. c #9B9691",
"N. c #9C9893",
"B. c #949798",
"V. c #899094",
"C. c #A39C95",
"Z. c #A49E98",
"A. c #ACA49C",
"S. c #A9A199",
"D. c #B4A89E",
"F. c #9DA4A8",
"G. c #A5AAAC",
"H. c #A5A6A5",
"J. c #B3AAA1",
"K. c #B9AEA4",
"L. c #BBB0A6",
"P. c #BEB5AC",
"I. c #B3B7BA",
"U. c #A8ADB0",
"Y. c #C2B5AA",
"T. c #CBBAAD",
"R. c #C4B7AB",
"E. c #D0BEAF",
"W. c #CCBEB2",
"Q. c #C6BCB4",
"!. c #D2BFB1",
"~. c #CFC1B5",
"^. c #D4C2B4",
"/. c #D4C4B8",
"(. c #DCCABB",
"). c #D9C7B9",
"_. c #E4CEBD",
"`. c #E6D0BF",
"'. c #E8D1BF",
"]. c #9BB9C7",
"[. c #97C5DB",
"{. c #BEC2C3",
"}. c #BFC5C8",
"|. c #84D7FC",
" X c #92DCFD",
".X c #B2E4FC",
"XX c #C3C6C7",
"oX c #DDCDC1",
"OX c #DBDDDE",
"+X c #D5D7D8",
"@X c #CCCFD0",
"#X c #E1CEC0",
"$X c #E5D2C2",
"%X c #EAD4C3",
"&X c #EDDACA",
"*X c #ECD8C7",
"=X c #F4DECC",
"-X c #F0D9C7",
";X c #F6E0CF",
":X c #F9E1CE",
">X c #F7E2D2",
",X c #FEE6D4",
"<X c #FFE8D6",
"1X c #FFEAD9",
"2X c #F8E7D9",
"3X c #D0E6EF",
"4X c #EAECEC",
"5X c #E2E4E5",
"6X c #EDF5F8",
"7X c #FEFEFE",
"8X c #F4F6F6",
"9X c #000000",
/* pixels */
"9X9X9X9X9X9X9X9X9X9X9X9X9X9X9X9X9X9X9X9X9Xk k k k h k h h h h 5 h 9X9X9X9X9X9X9X9X9X9X9X9X9X9X9X9X9X9X9X9X9X9X9X9X9X9X9X9X9X9X9X9X",
"9X9X9X9X9X9X9X9X9X9X9X9X9X9X9X9X9X9Xk m k k k k h h h h h k h 1 2 2 1 2 9X9X9X9X9X9X9X9X9X9X9X9X9X9X9X9X9X9X9X9X9X9X9X9X9X9X9X9X9X",
"9X9X9X9X9X9X9X9X9X9X9X9X9X9X9X9Xm k k k k m x V Z c ( ( c c x l 2 1 1 < 1 1 9X9X9X9X9X9X9X9X9X9X9X9X9X9X9X9X9X9X9X9X9X9X9X9X9X9X9X",
"9X9X9X9X9X9X9X9X9X9X9X9X9X9Xv v k k N ( ` 5.4.r.e.e.e.w.r.q.q.4.' ) c 5 1 1 1 1 9X9X9X9X9X9X9X9X9X9X9X9X9X9X9X9X9X9X9X9X9X9X9X9X9X",
"9X9X9X9X9X9X9X9X9X9X9X9X9Xv v v B ) 4.e.t.t.t.t.t.e.e.e.e.e.e.t.e.w.r.2.) 8 > > 1 - 9X9X9X9X9X9X9X9X9X9X9X9X9X9X9X9X9X9X9X9X9X9X9X",
"9X9X9X9X9X9X9X9X9X9X9X9Xb b v Z ' ' ` _ ` ` 5.e.e.e.w.e.w.e.e.w.w.w.w.w.8.4.) 8 > , 1 9X9X9X9X9X9X9X9X9X9X9X9X9X9X9X9X9X9X9X9X9X9X",
"9X9X9X9X9X9X9X9X9X9X9Xb b v n Z C k k h h h l c / ,.>.>.1.1.6.8.0.w.w.w.w.w.0.2.d 1 > > > 9X9X9X9X9X9X9X9X9X9X9X9X9X9X9X9X9X9X9X9X",
"9X9X9X9X9X9X9X9X9X9X9Xv b v b v k k m B m k 2 h k R -.;.;.;.;.;.:.>.7.0.0.w.w.w.q.` 8 - > > 9X9X9X9X9X9X9X9X9X9X9X9X9X9X9X9X9X9X9X",
"9X9X9X9X9X9X9X9X9X9Xb v v v k v i.U.+XOXOX{.m.k 2 h R ;.;.;.;.;.-.*.;.;.6.8.w.0.0.w.2.i - > - 9X9X9X9X9X9X9X9X9X9X9X9X9X9X9X9X9X9X",
"9X9X9X9X9X9X9X9X9X9Xv b v v v G.+XI.OX7X4XI.@X{.B 6 h ^ ;.;.;.*.;.*.*.*.*.;.6.0.0.0.w.3.c - - - 9X9X9X9X9X9X9X9X9X9X9X9X9X9X9X9X9X",
"9X9X9X9X9X9X9X9X9Xv b m b k F.4Xm.h G 4XB.2 A OXXXk h s -.;.;.;.;.*.;.*.%.*.*.:.7.0.0.0.3.T - - - 9X9X9X9X9X9X9X9X9X9X9X9X9X9X9X9X",
"9X9X9X9X9X9X9X9X9Xb v v v D 5XF.k k k V.m k h p.4XV.1 l | ;.*.;.*.*.*.*.*.=.=.=.-.6.w.8.w.q.T @ - - 9X9X9X9X9X9X9X9X9X9X9X9X9X9X9X",
"9X9X9X9X9X9X9X9X9Xb v v k B.}.m k k k k k h h 6 F.I.h < ! ;.;.;.;.*.*.*.*.%.%.=.%.%.>.0.8.w.q.T - - @ 9X9X9X9X9X9X9X9X9X9X9X9X9X9X",
"9X9X9X9X9X9X9X9X9Xb v v k p.D k n i.k k 2 D A h k c.h h ! ;.*.*.*.*.*.%.*.*.=.%.%.%.%.:.8.8.8.9.s + @ @ 9X9X9X9X9X9X9X9X9X9X9X9X9X",
"9X9X9X9X9X9X9X9X9Xv b v k k k k G.OXA h l {.XXb 2 2 2 2 ! ;.-.;.*.*.*.*.%.%.*.%.%.%.$.$.:.8.8.w.3.i @ + @ 9X9X9X9X9X9X9X9X9X9X9X9X",
"9X9X9X9X9X9X9X9Xm v k v b k k m.6X7XG.v c.8X7XG.2 h 1 8 | ;.*.*.*.*.*.*.*.%.%.%.%.$.$.$.$.;.8.8.7.2.4 + + 9X9X9X9X9X9X9X9X9X9X9X9X",
"9X9X9X9X9X9X9X9Xl k l l k k A OX7X7X8XOX8X7X7X8Xi.1 h f X.*.*.*.%.;.%.*.%.%.%.%.%.&.$.$.$.#.;.8.8.8./ ; + + 9X9X9X9X9X9X9X9X9X9X9X",
"9X9X9X9X9X9X9X9XM l m k k k m U.8X7X7X7X7X7X8X{.B 1 5 ^ ;.*.;.*.;.%.;.*.%.%.%.%.$.$.$.#.#.$.$.:.8.8.8.R - O + 9X9X9X9X9X9X9X9X9X9X",
"9X9X9X9X9X9X9X9Xm k k l k m k k i.I.+X5XOX{.m.l h 1 T X.*.*.*.*.%.*.%.%.%.%.%.%.&.$.$.$.#.#.#.$.>.8.8.7.T O o + 9X9X9X9X9X9X9X9X9X",
"9X9X9X9X9X9X9X9Xl m k l k k k k h k n B n h 1 2 1 < i s f T R Q  .O.;.%.%.%.$.$.%.$.$.$.$.+.#.#.$.1.8.8.3.i O + O O 9X9X9X9X9X9X9X",
"9X9X9X9X9X9X9X9Xl M k k k k k h h h h h 6 6 2 2 h 1 1 1 < < < < 5 y T W [ $.%.$.$.$.$.&.#.#.#.+.+.%.6.7.8.2.& o O O O o 9X9X9X9X9X",
"9X9X9X9X9X9Xv v l l k k k k l x i s s s f f g i 8 5 1 1 1 1 1 , > > - < 5 g E ..$.&.$.&.#.#.+.#.+.+.*.8.7.7./ f & O o O O o 9X9X9X",
"9X9X9X9Xv b v v l l z c R ~ Q Q ] ] [ Q E T i 8 5 1 1 1 1 1 < 1 > , < > > - > 3 Y ] +.&.+.#.#.+.#.+.+.;.7.7.7.7.3.^ g # o o o 9X9X",
"9X9X9Xb b v b z T ! ] [ [ [ [ [ [ ~ f 8 6 < h < 1 1 1 1 1 < , < 1 < > > > - > @ < 3 q Q #.#.#.+.+.+.+.+.:.7.7.7.7.7.9.^ & o o X 9X",
"9X9Xm l m c ~ ^  .[ [  .....[ ! s h 1 1 h k A z.M.A.J.L.K.J.C.J l < > 1 1 1 - - - - @ ; q { +.+.+.+.+.+.+.:.6.7.7.7.7.1.<.& o X 9X",
"9Xb b b T |  . . .......O.^ T h h h k G Z.!.&X,X1X1X1X1X,XL.S h < , > , h C F B 1 @ @ - @ & E } @.+.+.+.+.+.#.*.>.1.6.7.7.^ % X X ",
"b m b R |  . . ...X.X.X.~ x h h l c.W.=X1X1X,X1X1X,X1X;XM.1 > > 1 < > - - > n !.W.x.6 - @ @ # 9 Q I +.L +.+.I I U $.>.7.7.,.* X X ",
"b m c ^  . ...X.X.X...R l h k _ W.>X1X1X1X,X1X,X,X1X,XZ.< > k b.Y.R.A.z.l - 6 ).1X,X_.M.k + + @ % Y } +.I I I +.I U I ;.6.6.e X . ",
"v m c  . . .X.X.X.X.R k k h N H.$X1X1X,X1X,X,X1X,X1X;XS - k C.J.N.J.#X>X$XK.T.>X,X,X,X,X_.b.1 O + O 0 Q L +.I L L L L L :.9.9   X ",
"m k z |  ...X.X.X.! l k h h h h B N.&X1X,X1X2X1X,X,X,XL.H G l > - - l J.1X1X1X,X,X,X,X,X,X,X!.F + + O % W L L +.L L L L $.o.% . X ",
"l b b T | ..X.X. .z h k B B k 5 h 1 c.>X1X,X1X,X,X,X,X1XJ.h - > 2 - - 1 J.,X,X,X,X,X,X,X,X,X1XJ.+ O O O % Y L L L K K L @.~ . . . ",
"9Xv v v c !  .X.~ k k B.&X*XoXH.A < J =X1X,X,X,X,X1X1X#XN > h G.+XG.6 - b #X,X,X,X,X,X,X,X,X>Xy.O + $ O . . q W q 0 0 q Y % o . 9X",
"9X9Xv b k b z d x k n oX*XK.A./.oXJ./.1X1X,X,X1X,X,X<XA.< @ F.7X7X.Xd.- - Z.<X,X,X,X,X,X,X,X_.5 O $ e = O X O % X X   X X X X   9X",
"9X9X9Xk v k k k k k G P.A k 2 k M.>X1X,X,X1X2X,X<X2X,Xp.> v 5X7X|.g.f.j @ H >X,X,X,X,X,X,X,XS.O O = r r w O X X O 5 7 $ X X o 9X9X",
"9X9X9X9X9Xk k k k 2 n B h 2 h 2 2 Z.1X1X,X,X,X,X,X<X=XA @ D 8X3Xk.a.j < - B =X,X,X,X,X,X,X:XB O O e r r e O X 3 D.(.(.R.F X X X 9X",
"9X9X9X9X9X9X9X9Xk k k h h B.{.m < B #X1X,X1X1X,X,X<X=XB @ p.8X Xf.< - - @ B =X,X,X,X:X,X,XL.# O $ r r r $ X + D.<X:X'.'.).B   X 9X",
"9X9X9X9X9X9X9X9Xh k h 2 D 6X7XG.h h H.,X,X,X1X,X<X,X>XF @ A 4X|.a.- - - @ F =X,X,X,X,X,X:XF O + e r r e O . F :X,X:X'._.'.D.X   . ",
"9X9X9X9X9X9X9X9X9X6 6 2 F.6X|.l.h < z.,X1X,X,X,X1X,X,Xn.> 1 }. Xf.< - - @ b.,X,X,X,X,X,X~.- O O $ e r w O X y.,X,X:X'.'.'.^.3   . ",
"9X9X9X9X9X9X9X9X9Xk h k XX Xh.M h 1 F =X,X1X1X,X,X,X<XW.2 @ D [.k.u.# - 1 W.,X,X,X,X,X<X^.5 O O O % $ $ o o K.,X,X:X'.'._.(.B   . ",
"9X9X9X9X9X9X9X9X9X2 6 k ].l.k 1 < 1 A &X1X,X,X1X,X1X<X>Xx.> @ v u.j - - x.>X,X,X,X<X<X,X,X^.b.l O X X X o # T.,X,X:X'._._._.V   . ",
"9X9X9X9X9X9X9X9X9X9Xk 6 u.d.2 2 2 1 B %X1X,X,X1X,X<X,X<X$XG @ + O @ - J %X<X,X<X;XT.T.:X,X,X,X'.D.F $ O X + ^.,X:X-X_.'._.'.w . . ",
"9X9X9X9X9X9X9X9X9X9X2 2 2 M 2 2 1 1 1 Z.1X,X,X,X<X,X<X,X<X&XS.S b V C.*X<X<X,XW.H - , ~.,X,X,X,X<X:X^.y.7 _ -X,X:X'.'._.'.y.X . . ",
"9X9X9X9X9X9X9X9X9X9X9X6 2 1 2 1 1 < 2 A.1X,X,X2X,X<X,X<X<X<X<X;X*X=X<X<X;XW.y.1 O + + L.,X,X,X:X,X,X,X,X-X:X,X-X'.'._.'.E.7   . 9X",
"9X9X9X9X9X9X9X9X9X9X9X9X2 2 1 k x.J.W.=X,X,X1X,X<X,X<X<X<X<X<X<X<X,X$XJ.F > + @ + + - T.,X,X,X,X,X,X,X,X:X:X-X'.'.'.'.E.V   .   9X",
"9X9X9X9X9X9X9X9X9X9X9X9Xh h B Q.,X1X1X,X,X1X,X,X<X<X<X<X,X,X;X(.J.y.l - + + + $ # O 5 #X,X,X,X:X:X:X-X-X'.'.'.'.'.(.A.k     X 9X9X",
"9X9X9X9X9X9X9X9X9X9X9X2 < h P.1X,X2X,X1X2X,X,X>X$X_./.R.S.x.V 5 - @ + + - $ e = + O J :X,X,X:X=X'._._.'.).^.T.D.y.N O       9X9X9X",
"9X9X9X9X9X9X9X9X9X9X9Xh < i.2X1X1X,X,X,X,X,X>Xn.l k 2 > @ @ @ - @ - $ 4 u t e # + - L.,X:X:X,X%X'._.'.K.b 3 $ O O . X X O 9X9X9X9X",
"9X9X9X9X9X9X9X9X9X9X9X1 < M.1X2X,X2X,X,X1X1X&Xl > - > > > > , 3 y u p t t = # + O x.:X,X,X,X=X'.'.'.'.F   X X . X X o 9X9X9X9X9X9X",
"9X9X9X9X9X9X9X9X9X9X9X2 1 N.1X<X<X2X,X,X<X<X$Xb > , 4 y u p p a a a t t w + + + _ -X,X,X:X:X-X`._.'.R.$ o o o X 9X9X9X9X9X9X9X9X9X",
"9X9X9X9X9X9X9X9X9X9X9X1 1 i.2X1X<X<X,X<X,X<X~.1 - 4 a a a a t a t a t e $ + - N.=X,X,X,X,X;X`.`.'.'.y.X o 9X9X9X9X9X9X9X9X9X9X9X9X",
"9X9X9X9X9X9X9X9X9X9X9X2 1 k ~.1X<X<X<X<X<X>Xx.> , z a a a a a p p e 3 # + O y.:X,X:X,X:X:X-X'.`.'.^.7 X o 9X9X9X9X9X9X9X9X9X9X9X9X",
"9X9X9X9X9X9X9X9X9X9X9X9X1 1 V @X1X1X<X<X>XC.1 - 5 a a a a a y = - @ + + @ H '.,X,X,X,X:X=X'.'.`.'.y.X o O 9X9X9X9X9X9X9X9X9X9X9X9X",
"9X9X9X9X9X9X9X9X9X9X9X9X1 1 1 b N.~.~.K.H < > > u a a a a u - + + - , B D.;X,X,X,X,X,X:X'.`.`.'.L.$ o o 9X9X9X9X9X9X9X9X9X9X9X9X9X",
"9X9X9X9X9X9X9X9X9X9X9X9X9X1 1 1 > 1 2 < - > > > 4 p p t p = - @ n y.R.-X<X,X,X,X:X,X:X'.`.`.`.^.V X O 9X9X9X9X9X9X9X9X9X9X9X9X9X9X",
"9X9X9X9X9X9X9X9X9X9X9X9X9X9X1 1 , < > > 6 k > > > > , 3 > @ + b (.,X<X,X,X,X,X,X,X:X-X`.`.`._._ X X X 9X9X9X9X9X9X9X9X9X9X9X9X9X9X",
"9X9X9X9X9X9X9X9X9X9X9X9X9X9X1 ; n C.C.A.).(.n.b > + + @ + + b R.,X,X,X,X,X,X:X,X:X'.`.`.`._.x.O X X 9X9X9X9X9X9X9X9X9X9X9X9X9X9X9X",
"9X9X9X9X9X9X9X9X9X9X9X9X9X9X1 > 6 ^.1X<X<X<X,X$XD.y.V B J C.(.,X,X,X,X,X:X,X,X:X'.'.'.'.(.x.+ X o 9X9X9X9X9X9X9X9X9X9X9X9X9X9X9X9X",
"9X9X9X9X9X9X9X9X9X9X9X9X9X9X9X1 > F *X<X<X<X<X,X<X,X:X:X:X<X<X,X,X,X,X,X,X:X-X'.`.`.'.).y.+ X o 9X9X9X9X9X9X9X9X9X9X9X9X9X9X9X9X9X",
"9X9X9X9X9X9X9X9X9X9X9X9X9X9X9X1 < > H $X<X,X,X,X<X<X,X<X,X,X,X,X,X,X,X,X:X'.'.'.'.'.Y.V o X X 9X9X9X9X9X9X9X9X9X9X9X9X9X9X9X9X9X9X",
"9X9X9X9X9X9X9X9X9X9X9X9X9X9X9X9X> > > B P.;X<X<X,X,X,X,X,X,X,X,X,X:X:X'.'.'.'.'.^.v., o o o 9X9X9X9X9X9X9X9X9X9X9X9X9X9X9X9X9X9X9X",
"9X9X9X9X9X9X9X9X9X9X9X9X9X9X9X9X9X< > > 1 J D.`.;X:X,X,X,X:X:X;X-X'.'.'.'.`.~.n.l o o o o 9X9X9X9X9X9X9X9X9X9X9X9X9X9X9X9X9X9X9X9X",
"9X9X9X9X9X9X9X9X9X9X9X9X9X9X9X9X9X9X> > > @ > b J M.D.~.).(._._.`._.).~.S._ 5 O o o o 9X9X9X9X9X9X9X9X9X9X9X9X9X9X9X9X9X9X9X9X9X9X",
"9X9X9X9X9X9X9X9X9X9X9X9X9X9X9X9X9X9X9X9X> @ > + # + - 5 l B V F F V b , + o O o O O 9X9X9X9X9X9X9X9X9X9X9X9X9X9X9X9X9X9X9X9X9X9X9X",
"9X9X9X9X9X9X9X9X9X9X9X9X9X9X9X9X9X9X9X9X9X9X9X- - - - + + + O + O O O O O + o 9X9X9X9X9X9X9X9X9X9X9X9X9X9X9X9X9X9X9X9X9X9X9X9X9X9X",
"9X9X9X9X9X9X9X9X9X9X9X9X9X9X9X9X9X9X9X9X9X9X9X9X9X9X- + + + @ + + + O O O 9X9X9X9X9X9X9X9X9X9X9X9X9X9X9X9X9X9X9X9X9X9X9X9X9X9X9X9X"
};
